<?xml version="1.0" encoding="utf-8"?>
<!-- Generator: Adobe Illustrator 17.1.0, SVG Export Plug-In . SVG Version: 6.00 Build 0)  -->
<!DOCTYPE svg PUBLIC "-//W3C//DTD SVG 1.1//EN" "http://www.w3.org/Graphics/SVG/1.1/DTD/svg11.dtd">
<svg version="1.1" id="Layer_1" xmlns="http://www.w3.org/2000/svg" xmlns:xlink="http://www.w3.org/1999/xlink" x="0px" y="0px"
	 viewBox="0 0 631.6 82.2" enable-background="new 0 0 631.6 82.2" xml:space="preserve">
<path fill="none" stroke="#2A2149" stroke-width="0.13" d="M128.5,82.2"/>
<rect x="57.2" y="0" fill="none" width="396" height="72"/>
<path fill="#2A2149" d="M76.7,62.3c0.3-2.5,0.4-4.7,0.4-8.1V37.7c0-4.1-0.1-6-0.4-8.1h10.6v2.3c0,0.2,0,0.2-0.1,0.8v0.3v0.3
	c2.7-3,6-4.4,10.3-4.4c2.8,0,5.1,0.6,6.9,1.9c1,0.7,1.5,1.3,2.2,2.7c3.3-3.3,6.6-4.7,11.3-4.7c7.7,0,11.6,4.2,11.6,12.3v13.3
	c0,3.3,0.1,5.5,0.4,8.1h-11.2c0.3-2.5,0.4-4.5,0.4-8.1V43.1c0-4-1.2-5.6-4.2-5.6c-2.7,0-5.2,2.1-6.5,5.7v11c0,3.2,0.1,5.5,0.4,8.1
	H97.7c0.3-2.4,0.4-4.7,0.4-8.1V43.1c0-2.3-0.2-3.3-0.9-4.2c-0.6-0.9-1.7-1.3-3-1.3c-2.9,0-5.4,2.1-6.9,5.7v10.8
	c0,3.4,0.1,5.5,0.4,8.1H76.7z"/>
<path fill="#2A2149" d="M143,48.9c0.5,4.3,3.1,6.7,7.3,6.7c2.1,0,4-0.7,5.4-2c0.8-0.8,1.2-1.3,1.6-2.7l9.3,2.6c-1.2,2.8-2,4-3.5,5.5
	c-3.1,3-7.4,4.6-12.7,4.6c-5.3,0-9.4-1.5-12.5-4.6c-3.2-3.2-4.9-7.8-4.9-13.1c0-10.6,6.8-17.7,17.1-17.7c8.4,0,14.2,4.6,16.1,12.6
	c0.4,1.7,0.6,4,0.8,7c0,0.2,0,0.5,0.1,1.1H143z M157,41.5c-0.8-3.4-3.1-5.3-6.8-5.3c-3.8,0-6.1,1.7-7,5.3H157z"/>
<path fill="#2A2149" d="M170.5,62.3c0.3-2.5,0.4-4.8,0.4-8.1V37.7c0-3.7-0.1-6-0.4-8.1h10.7v2.3c0,0.3-0.1,1.1-0.1,1.5
	c3.4-3.2,6.7-4.6,11.1-4.6c3.7,0,6.7,1,8.6,3c2.1,2.1,3.1,4.8,3.1,9v13.5c0,3.1,0.2,5.8,0.4,8.1h-11.2c0.3-2.6,0.4-4.8,0.4-8.1v-11
	c0-2.1-0.2-3.1-0.9-4c-0.7-1-1.9-1.5-3.5-1.5c-3,0-5.7,1.9-8,5.6v10.8c0,3.1,0.1,5.3,0.4,8.1H170.5z"/>
<path fill="#2A2149" d="M213.1,28.4c0-2.7-0.1-4.8-0.4-7.4h11c-0.3,2.2-0.4,4.8-0.4,7.4v1.1h1.9c2.4,0,3.6-0.1,5.3-0.3v8.9
	c-1.6-0.2-3-0.3-4.9-0.3h-2.3v13.7c0,1.5,0.3,2.3,1,2.7c0.6,0.4,1.4,0.6,2.5,0.6c1.4,0,2.4-0.3,3.8-1l0.8,8.2
	c-2.4,0.8-4.5,1.1-7.4,1.1c-3.7,0-6.2-0.6-7.9-1.9c-2-1.6-2.8-3.4-2.8-7V37.9h-2c-1.7,0-3.1,0.1-4.7,0.3v-9c1.6,0.2,2.9,0.3,4.8,0.3
	h1.9V28.4z"/>
<path fill="#2A2149" d="M233.2,45.9c0-10.7,6.9-17.6,17.7-17.6c10.8,0,17.7,6.8,17.7,17.4c0,10.7-7.1,17.8-17.8,17.8
	C240.1,63.5,233.2,56.7,233.2,45.9 M243.5,45.8c0,6,2.8,9.6,7.5,9.6c4.7,0,7.4-3.5,7.4-9.5c0-6-2.7-9.6-7.3-9.6
	C246.2,36.4,243.5,39.9,243.5,45.8"/>
<path fill="#2A2149" d="M296.1,39.2c-2.5-0.8-3.8-1-5.5-1c-2.7,0-4.8,1-6.4,2.9c-1,1.3-1.4,2.4-1.6,4.8v8.4c0,3.4,0.1,5.5,0.4,8.1
	H272c0.3-2.7,0.4-4.6,0.4-8.1V37.7c0-3.9-0.1-5.8-0.4-8.1h10.7v4.2c2.6-3.4,5.9-4.9,10.7-4.9c1.7,0,2.8,0.1,5.3,0.6L296.1,39.2z"/>
<path fill="#2A2149" stroke="#A02F8E" stroke-width="1.5" d="M317.4,27.2c2.2,0,4.1,0.3,5.7,0.8c1.6,0.5,3,1.2,4.2,2l-1.2,5.9
	c-1.5-1.1-3-1.9-4.5-2.5c-1.5-0.5-3.1-0.8-4.8-0.8c-1.5,0-2.8,0.3-4.1,0.8c-1.3,0.6-2.4,1.4-3.3,2.4c-0.9,1.1-1.7,2.4-2.2,3.9
	c-0.5,1.5-0.8,3.3-0.8,5.2c0,1.8,0.2,3.4,0.7,4.8c0.5,1.5,1.2,2.7,2.1,3.7c0.9,1,2,1.9,3.3,2.4c1.3,0.6,2.7,0.9,4.3,0.9
	c2,0,3.8-0.3,5.4-1c1.6-0.7,3.2-1.7,4.6-2.9l0.7,5.8c-0.8,0.6-1.7,1.2-2.5,1.6c-0.8,0.5-1.7,0.8-2.6,1.1c-0.9,0.3-1.9,0.5-2.9,0.7
	c-1,0.1-2.2,0.2-3.4,0.2c-2.2,0-4.3-0.4-6.2-1.2c-1.9-0.8-3.6-1.9-5.1-3.4c-1.5-1.5-2.6-3.3-3.4-5.3c-0.8-2.1-1.3-4.5-1.3-7.1
	c0-2.5,0.4-4.8,1.2-7c0.8-2.2,1.9-4.1,3.4-5.8c1.5-1.6,3.3-3,5.4-3.9C312.4,27.6,314.8,27.2,317.4,27.2"/>
<path fill="#2A2149" stroke="#A02F8E" stroke-width="1.5" d="M339.1,45.8c0,1.1,0,2.3,0,3.7c0,1.4,0.1,2.9,0.1,4.4
	c0.1,1.5,0.1,2.9,0.2,4.2c0.1,1.3,0.2,2.5,0.3,3.4H333V24.2c0-3.2-0.1-6.1-0.2-8.7c-0.1-2.6-0.3-4.9-0.5-6.8h6.8V45.8z"/>
<path fill="#2A2149" stroke="#A02F8E" stroke-width="1.5" d="M346.5,15.2c0-0.6,0.1-1.2,0.3-1.7c0.2-0.5,0.5-1,0.8-1.4
	c0.4-0.4,0.8-0.7,1.3-1c0.5-0.2,1.1-0.3,1.7-0.3c0.6,0,1.2,0.1,1.7,0.3c0.5,0.2,1,0.5,1.4,1c0.4,0.4,0.7,0.9,0.9,1.4
	c0.2,0.5,0.3,1.1,0.3,1.7c0,0.6-0.1,1.2-0.3,1.7c-0.2,0.5-0.5,1-0.9,1.4c-0.4,0.4-0.8,0.7-1.4,1c-0.5,0.2-1.1,0.3-1.7,0.3
	c-0.6,0-1.2-0.1-1.7-0.3c-0.5-0.2-0.9-0.5-1.3-1c-0.4-0.4-0.6-0.9-0.8-1.4C346.6,16.4,346.5,15.8,346.5,15.2 M353.7,45.8
	c0,1.1,0,2.3,0.1,3.7c0,1.4,0.1,2.9,0.1,4.4c0.1,1.5,0.1,2.9,0.2,4.2c0.1,1.3,0.2,2.5,0.3,3.3h-6.8V44c0-1.6,0-3.2,0-4.7
	c0-1.6,0-3-0.1-4.4c0-1.4-0.1-2.7-0.1-3.9c-0.1-1.2-0.2-2.2-0.3-3.1h6.6V45.8z"/>
<path fill="#2A2149" stroke="#A02F8E" stroke-width="1.5" d="M406.8,64.3h-8.4l-3.5-3.6c-3.7,2.4-7.8,3.6-12.4,3.6
	c-5.9,0-11.1-2-15.7-6c-5-4.4-7.4-10-7.4-16.8c0-6.7,2.3-12.3,7-16.7c4.6-4.3,9.9-6.5,16.2-6.5c5.6,0,10.7,1.9,15.1,5.7
	c5.4,4.6,8.1,10.5,8.1,17.9c0,5.7-2.1,10.9-6.4,15.3L406.8,64.3z M388.4,45.9l6.4,6.4c2.8-2.9,4.3-6.6,4.3-10.9
	c0-4.8-1.6-8.8-4.7-12c-3.2-3.2-7.1-4.8-11.8-4.8c-4.8,0-8.7,1.6-11.7,4.8c-3.1,3.2-4.6,7.2-4.6,12.1c0,4.8,1.6,8.7,4.8,11.7
	c3.3,3.1,7.1,4.7,11.4,4.7c2.9,0,5.5-0.7,7.8-2l-10.4-10.1H388.4z"/>
<radialGradient id="SVGID_1_" cx="31.22" cy="40.673" r="25.3" fx="30.9771" fy="40.4836" gradientUnits="userSpaceOnUse">
	<stop  offset="0" style="stop-color:#FFFFFF"/>
	<stop  offset="3.117436e-02" style="stop-color:#E2DFE4"/>
	<stop  offset="0.1322" style="stop-color:#A8A1B2"/>
	<stop  offset="0.238" style="stop-color:#80768E"/>
	<stop  offset="0.3466" style="stop-color:#635875"/>
	<stop  offset="0.4588" style="stop-color:#4D4363"/>
	<stop  offset="0.5755" style="stop-color:#3D3457"/>
	<stop  offset="0.6989" style="stop-color:#32294F"/>
	<stop  offset="0.8335" style="stop-color:#2C234A"/>
	<stop  offset="1" style="stop-color:#2A2149"/>
</radialGradient>
<circle fill="url(#SVGID_1_)" cx="36" cy="45.3" r="25.3"/>
<path fill="#A0308E" d="M34.7,10.9c-18.5,0-33.5,15-33.5,33.5c0,18.5,15,33.9,33.5,33.5c12.9-0.2,8.8-7.1,14.5-8.8
	c5.5-1.6,9.1-0.9,12-4.5c3.3-4.1,7.5-9.5,7.1-20.2C67.5,25.9,53.2,10.9,34.7,10.9z M34.7,68.2C21.6,68.2,11,57.5,11,44.4
	c0-13.1,10.6-23.8,23.8-23.8c13.1,0,23.8,10.6,23.8,23.8C58.5,57.5,47.8,68.2,34.7,68.2z"/>
<path fill="#FFFFFF" d="M17.4,55.5c0.2-1.6,0.3-3,0.3-5.1V39.8c0-2.6-0.1-3.8-0.3-5.1h6.8v1.4c0,0.1,0,0.1,0,0.5v0.2v0.2
	c1.7-1.9,3.8-2.8,6.5-2.8c1.8,0,3.2,0.4,4.4,1.2c0.6,0.4,1,0.9,1.4,1.7c2.1-2.1,4.2-3,7.2-3c4.9,0,7.4,2.7,7.4,7.8v8.5
	c0,2.1,0.1,3.5,0.3,5.1h-7.1c0.2-1.6,0.3-2.8,0.3-5.1v-7c0-2.6-0.8-3.5-2.7-3.5c-1.7,0-3.3,1.4-4.2,3.6v7c0,2,0.1,3.5,0.3,5.1h-7.1
	c0.2-1.5,0.3-3,0.3-5.1v-7c0-1.4-0.1-2.1-0.6-2.7c-0.4-0.5-1.1-0.9-1.9-0.9c-1.8,0-3.4,1.3-4.4,3.6v6.9c0,2.1,0.1,3.5,0.3,5.1H17.4z
	"/>
<path fill="#2A2149" d="M34.8,12.6c17.6,0,32,14.3,32,32c0,7.6-2.7,15-7.7,20.8c-0.6,0.7-1.6,1.7-1.6,1.7c-0.7,0.1-1.7-0.7-2.6-0.6
	c-2,0.2-5-0.2-7,1c-2,1.2-1.5,3.9-2.6,5.6c-0.6,0.9-0.8,1.2-1.4,1.8c-0.6,0.6-2.4,1-2.7,1c-2.1,0.4-4.3,0.6-6.4,0.6
	c-17.6,0-32-14.3-32-32C2.8,27,17.1,12.6,34.8,12.6 M34.8,9.8C15.6,9.8,0,25.4,0,44.6c0,19.2,15.6,34.9,34.8,34.8
	c7.2,0,9.2-1.5,9.2-1.5s3.1-3.7,1.1-10c-0.8-2.6,3.2,1.9,4.5-0.6c1.1-2.2,10.1,1.4,10.3,1.2c5-6,9.7-15.3,9.7-23.9
	C69.5,25.4,54,9.8,34.8,9.8"/>
<path fill="none" stroke="#2A2149" stroke-width="0.13" d="M41.6,78.7"/>
<path fill="none" stroke="#2A2149" stroke-width="0.13" d="M40.2,53.5"/>
<rect x="445.9" y="50.5" fill="none" width="234.5" height="31.8"/>
<text transform="matrix(1 0 0 1 445.9311 62.0478)" fill="#A0308E" font-family="'Helvetica-Light'" font-size="16">the new face of mentoring</text>
<polygon fill="#2A2149" stroke="#FFFFFF" stroke-width="0.75" points="44.9,56.7 44.2,78.2 49.1,71.7 53.8,82.3 57.9,80 53.1,69.7 
	60.1,68.8 "/>
<rect x="405.6" y="54" fill="none" width="26" height="25"/>
<text transform="matrix(1 0 0 1 405.6069 69.6469)" fill="#2A2149" font-family="'MyriadPro-Regular'" font-size="22">™</text>
</svg>
